<svg xmlns="http://www.w3.org/2000/svg" viewBox="0 0 25.99 21.21"><g data-name="Layer 2"><path d="m23 19.36-3.79-4.59 3.37-.77a.55.55 0 0 0 .43-.5.54.54 0 0 0-.33-.56l-9.21-4.1a.56.56 0 0 0-.59.08.59.59 0 0 0-.19.56L15 19.3a.59.59 0 0 0 .5.44.57.57 0 0 0 .5-.34l1.41-3.19 3.79 4.59a1.13 1.13 0 0 0 1.8-1.44Z"/><path d="M2.14 11.32A2.14 2.14 0 0 1 0 9.18v-7A2.14 2.14 0 0 1 2.14 0h21.71A2.14 2.14 0 0 1 26 2.14v7a2.14 2.14 0 0 1-1.66 2.09l-2.11-.71h1.63a1.38 1.38 0 0 0 1.38-1.38v-7A1.38 1.38 0 0 0 23.85.76H2.14A1.38 1.38 0 0 0 .76 2.14v7a1.38 1.38 0 0 0 1.38 1.38h8.55l.26.76Z"/></g></svg>